<svg width="154" height="38" viewBox="0 0 154 38" fill="none" xmlns="http://www.w3.org/2000/svg">
<path d="M12.8422 28.7381C10.1797 28.7381 7.88889 28.1935 5.96979 27.1043C4.05069 26.0151 2.5811 24.4677 1.56104 22.4622C0.540977 20.4739 0.0309448 18.1485 0.0309448 15.486C0.0309448 12.858 0.592844 10.5499 1.71664 8.56163C2.84044 6.55608 4.40512 5.00869 6.41066 3.91947C8.4335 2.83025 10.733 2.28564 13.3091 2.28564C14.623 2.28564 15.8938 2.42396 17.1213 2.70058C18.3662 2.95992 19.4381 3.323 20.3371 3.78981L19.8184 8.22449C17.7092 7.25629 15.5394 6.77219 13.3091 6.77219C10.6119 6.77219 8.57182 7.55885 7.18868 9.13217C5.80554 10.7228 5.11397 12.8148 5.11397 15.4082C5.11397 18.088 5.78825 20.2318 7.13681 21.8397C8.50266 23.4476 10.465 24.2516 13.0238 24.2516C14.0611 24.2516 15.2282 24.1219 16.5249 23.8626V19.3242H13.0238V15.486H21.167V26.7931C20.2161 27.3636 19.0145 27.8305 17.5622 28.1935C16.0926 28.5566 14.5193 28.7381 12.8422 28.7381ZM33.2262 28.5825C31.3071 28.5825 29.6474 28.1589 28.2469 27.3118C26.8465 26.4646 25.7659 25.3235 25.0052 23.8885C24.2618 22.4708 23.8901 20.8975 23.8901 19.1686C23.8901 17.4569 24.2618 15.875 25.0052 14.4227C25.7659 12.9704 26.8465 11.8206 28.2469 10.9735C29.6474 10.1263 31.3071 9.70271 33.2262 9.70271C35.128 9.70271 36.7792 10.1263 38.1796 10.9735C39.5973 11.8206 40.6779 12.9704 41.4213 14.4227C42.1648 15.875 42.5365 17.4569 42.5365 19.1686C42.5365 20.8975 42.1648 22.4708 41.4213 23.8885C40.6779 25.3235 39.5973 26.4646 38.1796 27.3118C36.7792 28.1589 35.128 28.5825 33.2262 28.5825ZM33.2262 24.874C34.6958 24.874 35.8455 24.3553 36.6754 23.318C37.5226 22.2806 37.9462 20.8975 37.9462 19.1686C37.9462 17.4396 37.5226 16.0479 36.6754 14.9932C35.8455 13.9386 34.6958 13.4113 33.2262 13.4113C31.7394 13.4113 30.581 13.9386 29.7511 14.9932C28.9212 16.0479 28.5063 17.4396 28.5063 19.1686C28.5063 20.8975 28.9212 22.2806 29.7511 23.318C30.581 24.3553 31.7394 24.874 33.2262 24.874ZM53.9214 28.5825C52.0023 28.5825 50.3425 28.1589 48.9421 27.3118C47.5417 26.4646 46.4611 25.3235 45.7004 23.8885C44.957 22.4708 44.5852 20.8975 44.5852 19.1686C44.5852 17.4569 44.957 15.875 45.7004 14.4227C46.4611 12.9704 47.5417 11.8206 48.9421 10.9735C50.3425 10.1263 52.0023 9.70271 53.9214 9.70271C55.8232 9.70271 57.4743 10.1263 58.8748 10.9735C60.2925 11.8206 61.3731 12.9704 62.1165 14.4227C62.8599 15.875 63.2317 17.4569 63.2317 19.1686C63.2317 20.8975 62.8599 22.4708 62.1165 23.8885C61.3731 25.3235 60.2925 26.4646 58.8748 27.3118C57.4743 28.1589 55.8232 28.5825 53.9214 28.5825ZM53.9214 24.874C55.391 24.874 56.5407 24.3553 57.3706 23.318C58.2178 22.2806 58.6414 20.8975 58.6414 19.1686C58.6414 17.4396 58.2178 16.0479 57.3706 14.9932C56.5407 13.9386 55.391 13.4113 53.9214 13.4113C52.4345 13.4113 51.2762 13.9386 50.4463 14.9932C49.6164 16.0479 49.2015 17.4396 49.2015 19.1686C49.2015 20.8975 49.6164 22.2806 50.4463 23.318C51.2762 24.3553 52.4345 24.874 53.9214 24.874ZM78.4289 0.988953H82.9154V28.2195H78.6623L78.6104 27.0524C77.9016 27.5711 77.1668 27.9515 76.406 28.1935C75.6453 28.4529 74.7463 28.5825 73.7089 28.5825C71.9281 28.5825 70.4067 28.1589 69.1446 27.3118C67.8652 26.4646 66.9056 25.3235 66.2659 23.8885C65.6089 22.4708 65.2804 20.8975 65.2804 19.1686C65.2804 17.4569 65.6089 15.8836 66.2659 14.4486C66.9056 13.0309 67.8652 11.8984 69.1446 11.0513C70.4067 10.2041 71.9281 9.78052 73.7089 9.78052C75.4724 9.78052 77.0457 10.2646 78.4289 11.2328V0.988953ZM74.3573 24.874C75.775 24.874 76.8469 24.364 77.5731 23.3439C78.2819 22.3411 78.6363 20.9493 78.6363 19.1686C78.6363 17.4051 78.2819 16.0133 77.5731 14.9932C76.8469 13.9904 75.775 13.4891 74.3573 13.4891C72.9568 13.4891 71.859 14.0077 71.0637 15.0451C70.2857 16.0824 69.8966 17.4569 69.8966 19.1686C69.8966 20.8975 70.2857 22.2806 71.0637 23.318C71.859 24.3553 72.9568 24.874 74.3573 24.874ZM104.7 9.78052C106.429 9.78052 107.907 10.2041 109.135 11.0513C110.362 11.8984 111.296 13.0309 111.935 14.4486C112.558 15.8836 112.869 17.4569 112.869 19.1686C112.869 20.8975 112.558 22.4708 111.935 23.8885C111.296 25.3235 110.362 26.4646 109.135 27.3118C107.907 28.1589 106.429 28.5825 104.7 28.5825C102.798 28.5825 101.069 28.0639 99.5131 27.0265L99.4353 28.2195H95.234V0.988953H99.7205V11.4143C101.207 10.3251 102.867 9.78052 104.7 9.78052ZM104.051 24.874C105.383 24.874 106.42 24.3553 107.164 23.318C107.89 22.2806 108.253 20.8975 108.253 19.1686C108.253 17.4569 107.89 16.0824 107.164 15.0451C106.42 14.0077 105.383 13.4891 104.051 13.4891C102.53 13.4891 101.389 13.9904 100.628 14.9932C99.8848 16.0133 99.5131 17.4051 99.5131 19.1686C99.5131 20.9493 99.8848 22.3411 100.628 23.3439C101.389 24.364 102.53 24.874 104.051 24.874ZM124.228 28.5825C122.326 28.5825 120.675 28.1589 119.275 27.3118C117.857 26.4646 116.776 25.3235 116.033 23.8885C115.289 22.4708 114.918 20.8975 114.918 19.1686C114.918 17.4569 115.289 15.875 116.033 14.4227C116.776 12.9704 117.857 11.8206 119.275 10.9735C120.675 10.1263 122.326 9.70271 124.228 9.70271C126.147 9.70271 127.807 10.1263 129.207 10.9735C130.608 11.8206 131.688 12.9704 132.449 14.4227C133.192 15.875 133.564 17.4569 133.564 19.1686C133.564 20.8975 133.192 22.4708 132.449 23.8885C131.688 25.3235 130.608 26.4646 129.207 27.3118C127.807 28.1589 126.147 28.5825 124.228 28.5825ZM124.228 24.874C125.715 24.874 126.873 24.3553 127.703 23.318C128.533 22.2806 128.948 20.8975 128.948 19.1686C128.948 17.4396 128.533 16.0479 127.703 14.9932C126.873 13.9386 125.715 13.4113 124.228 13.4113C122.758 13.4113 121.609 13.9386 120.779 14.9932C119.932 16.0479 119.508 17.4396 119.508 19.1686C119.508 20.8975 119.932 22.2806 120.779 23.318C121.609 24.3553 122.758 24.874 124.228 24.874ZM138.154 37.011L142.174 27.0265L134.627 10.0658H139.633L144.275 21.7619L148.995 10.0658H154L142.641 37.011H138.154Z" fill="#321E0F"/>
</svg>
